<?xml version="1.0" encoding="iso-8859-1"?>
<!-- Generator: Adobe Illustrator 19.0.0, SVG Export Plug-In . SVG Version: 6.00 Build 0)  -->
<svg version="1.1" id="Capa_1" xmlns="http://www.w3.org/2000/svg" xmlns:xlink="http://www.w3.org/1999/xlink" x="0px" y="0px"
	 viewBox="-100 -100 712 712" style="enable-background:new 0 0 512 512;" xml:space="preserve">
<rect x="11.59" y="68.44" style="fill:#4A575E;" width="488.82" height="30.917"/>
<rect x="450.19" y="68.44" style="fill:#3A4449;" width="50.22" height="30.917"/>
<rect x="104.2" y="214.31" style="fill:#CCCCCC;" width="46.43" height="217.31"/>
<path style="fill:#E6E6E6;" d="M245.111,217.757h26.785V401.59c0,2.122-1.72,3.842-3.842,3.842h-19.1
	c-2.122,0-3.842-1.72-3.842-3.842L245.111,217.757L245.111,217.757z"/>
<rect x="337.87" y="126.49" style="fill:#CCCCCC;" width="52.592" height="52.612"/>
<g>
	<path style="fill:#4A575E;" d="M335.149,182.86h-50.571c-3.761,0-6.81-3.049-6.81-6.81v-46.507c0-3.761,3.049-6.81,6.81-6.81
		h50.571c1.504,0,2.724,1.22,2.724,2.724v54.679C337.873,181.641,336.653,182.86,335.149,182.86z"/>
	<path style="fill:#4A575E;" d="M443.76,182.86h-50.57c-1.505,0-2.724-1.22-2.724-2.724v-54.679c0-1.505,1.22-2.724,2.724-2.724
		h50.57c3.761,0,6.81,3.049,6.81,6.81v46.507C450.57,179.811,447.521,182.86,443.76,182.86z"/>
</g>
<path style="fill:#3A4449;" d="M443.761,122.733h-30.905c3.761,0,6.809,3.05,6.809,6.812v46.504c0,3.762-3.049,6.811-6.809,6.811
	h30.905c3.761,0,6.809-3.049,6.809-6.811v-46.504C450.57,125.783,447.521,122.733,443.761,122.733z"/>
<path style="fill:#DF8E59;" d="M378.646,434.612h-28.953c-2.378,0-4.306-1.928-4.306-4.306V146.073h37.566v284.233
	C382.952,432.684,381.024,434.612,378.646,434.612z"/>
<rect x="17.513" y="260.12" style="fill:#FF7357;" width="476.97" height="220.54"/>
<rect x="450.19" y="260.12" style="fill:#FB624C;" width="44.3" height="220.54"/>
<path style="fill:#FFBF64;" d="M282.784,341.537h-53.568c-2.276,0-4.121-1.845-4.121-4.121v-22.674c0-2.276,1.845-4.121,4.121-4.121
	h53.568c2.276,0,4.121,1.845,4.121,4.121v22.674C286.905,339.692,285.06,341.537,282.784,341.537z"/>
<path style="fill:#FF7357;" d="M223.271,144.826V24.653c0-2.57,2.103-4.653,4.698-4.653h61.069c2.594,0,4.698,2.083,4.698,4.653
	v120.173c0,6.542-0.888,13.055-2.641,19.363l-2.547,9.165c-1.753,6.308-2.641,12.82-2.641,19.363v13.407H231.1v-13.407
	c0-6.542-0.888-13.055-2.641-19.363l-2.547-9.165C224.159,157.881,223.271,151.368,223.271,144.826z"/>
<path style="fill:#FB624C;" d="M289.038,20h-32.45c2.594,0,4.698,2.083,4.698,4.653v120.173c0,6.542-0.889,13.055-2.641,19.363
	l-2.547,9.165c-1.753,6.308-2.641,12.821-2.641,19.363v13.407h32.45v-13.407c0-6.542,0.889-13.055,2.641-19.363l2.547-9.165
	c1.753-6.308,2.641-12.821,2.641-19.363V24.653C293.735,22.083,291.632,20,289.038,20z"/>
<path style="fill:#E6E6E6;" d="M189.597,172.13c0,35.017-28.654,63.311-63.679,62.484c-33.355-0.787-60.402-28.405-60.686-61.939
	c-0.203-23.886,12.929-44.71,32.368-55.402c2.224-1.223,4.94,0.362,4.94,2.91v37.918c5.181,5.207,8.085,8.127,13.266,13.334h23.215
	c5.181-5.207,8.085-8.127,13.266-13.334v-37.92c0-2.55,2.719-4.13,4.945-2.906C176.519,127.887,189.597,148.475,189.597,172.13z"/>
<path style="fill:#CCCCCC;" d="M157.232,117.276c-2.226-1.224-4.945,0.356-4.945,2.906v24.31c4.096,8.334,6.405,17.713,6.405,27.637
	c0,29.14-19.85,53.607-46.695,60.528c4.472,1.159,9.128,1.843,13.921,1.956c35.026,0.827,63.679-27.467,63.679-62.484
	C189.597,148.475,176.519,127.887,157.232,117.276z"/>
<path style="fill:#51E3F0;" d="M224.374,204.36h68.259c2.76,0,5.017,2.258,5.017,5.017v16.76c0,2.76-2.258,5.017-5.017,5.017
	h-68.259c-2.76,0-5.017-2.258-5.017-5.017v-16.76C219.356,206.617,221.614,204.36,224.374,204.36z"/>
<g>
	<path style="fill:#FFBF64;" d="M26.784,492H4.121C1.845,492,0,490.155,0,487.879V55.039c0-2.276,1.845-4.121,4.121-4.121h22.662
		c2.276,0,4.121,1.845,4.121,4.121v432.84C30.905,490.155,29.06,492,26.784,492z"/>
	<path style="fill:#FFBF64;" d="M507.879,492h-22.662c-2.276,0-4.121-1.845-4.121-4.121V55.039c0-2.276,1.845-4.121,4.121-4.121
		h22.662c2.276,0,4.121,1.845,4.121,4.121v432.84C512,490.155,510.155,492,507.879,492z"/>
</g>
<g>
</g>
<g>
</g>
<g>
</g>
<g>
</g>
<g>
</g>
<g>
</g>
<g>
</g>
<g>
</g>
<g>
</g>
<g>
</g>
<g>
</g>
<g>
</g>
<g>
</g>
<g>
</g>
<g>
</g>
</svg>
